<?xml version="1.0" standalone="no"?>
<!DOCTYPE svg PUBLIC "-//W3C//DTD SVG 20010904//EN"
 "http://www.w3.org/TR/2001/REC-SVG-20010904/DTD/svg10.dtd">
<svg version="1.0" xmlns="http://www.w3.org/2000/svg"
 width="1498.000000pt" height="1498.000000pt" viewBox="0 0 1498.000000 1498.000000"
 preserveAspectRatio="xMidYMid meet">
<metadata>
Created by potrace 1.14, written by Peter Selinger 2001-2017
</metadata>
<g transform="translate(0.000000,1498.000000) scale(0.100000,-0.100000)"
fill="#000000" stroke="none">
<path d="M7435 14515 c-217 -35 -339 -70 -532 -152 -122 -52 -250 -121 -372
-201 -252 -165 -493 -375 -701 -612 -36 -40 -69 -78 -75 -84 -96 -104 -268
-354 -377 -546 -57 -100 -228 -441 -228 -454 0 -3 -13 -33 -29 -68 -48 -104
-66 -146 -136 -313 -36 -88 -70 -169 -75 -180 -23 -50 -165 -420 -174 -450 -2
-5 -6 -19 -10 -30 -4 -11 -18 -49 -31 -85 -97 -269 -248 -773 -290 -970 -15
-68 -70 -261 -82 -287 -23 -49 -57 -57 -238 -59 -163 -2 -562 -11 -760 -19
-60 -2 -225 -7 -365 -10 -140 -4 -320 -8 -400 -10 -160 -5 -508 -12 -935 -20
-166 -3 -291 -10 -308 -16 -22 -9 -27 -18 -27 -44 0 -19 56 -258 124 -532 69
-274 134 -537 145 -585 12 -49 30 -125 41 -171 51 -214 103 -450 126 -577 3
-14 11 -56 19 -95 8 -38 17 -92 20 -120 4 -27 9 -58 11 -68 3 -10 7 -32 9 -50
7 -53 17 -131 20 -147 1 -8 6 -40 10 -70 4 -30 9 -63 10 -72 2 -9 6 -43 10
-75 6 -56 9 -83 20 -160 3 -21 8 -60 10 -88 3 -27 9 -84 15 -125 5 -41 12
-100 15 -130 4 -30 8 -66 10 -80 5 -33 16 -135 20 -185 2 -22 6 -53 9 -70 2
-16 8 -59 11 -95 4 -36 9 -74 11 -85 10 -53 6 -144 -8 -164 -35 -50 -37 -51
-523 -231 -165 -61 -316 -117 -335 -125 -118 -48 -595 -216 -629 -221 -31 -5
-41 -11 -41 -25 0 -16 10 -19 78 -21 42 -2 115 0 162 4 47 4 119 10 160 13 41
4 118 11 170 17 52 5 102 10 110 10 8 0 49 4 90 9 41 4 104 11 140 14 36 3 83
8 105 10 22 2 67 6 100 9 33 3 96 8 140 11 44 3 105 8 135 10 58 4 158 11 325
20 55 4 120 8 144 10 24 3 103 7 175 11 72 4 149 8 171 9 22 2 52 4 66 4 14 1
38 12 54 26 l27 26 -6 107 c-4 59 -9 132 -11 162 -12 146 -16 188 -20 225 -5
44 -14 146 -20 233 -8 102 -14 176 -19 217 -3 22 -8 76 -11 120 -3 44 -8 91
-10 105 -2 14 -6 63 -10 110 -4 47 -9 99 -11 115 -2 17 -6 55 -9 85 -3 30 -7
69 -10 85 -2 17 -7 55 -10 85 -3 30 -8 66 -10 80 -2 14 -7 48 -10 76 -3 28 -8
61 -10 74 -2 13 -9 58 -15 100 -6 42 -13 87 -15 101 -3 13 -7 38 -9 54 -3 17
-11 68 -20 115 -9 47 -18 99 -21 115 -3 17 -12 64 -20 105 -9 41 -17 86 -20
100 -3 14 -12 60 -21 103 -8 42 -17 87 -20 100 -2 12 -6 31 -8 42 -2 11 -16
79 -31 150 -15 72 -28 137 -30 145 -42 195 -58 275 -62 322 -5 51 -3 57 18 71
24 15 123 23 423 32 163 5 1141 17 1306 16 632 -5 932 -2 1695 14 1326 27
1694 31 2085 21 554 -15 1664 -28 2640 -31 1602 -5 2413 -21 2465 -48 41 -21
41 -43 -1 -207 -31 -120 -91 -382 -99 -435 -6 -44 -11 -74 -25 -155 -5 -30
-12 -68 -14 -85 -10 -63 -17 -102 -26 -155 -5 -30 -12 -68 -14 -85 -3 -16 -15
-88 -26 -160 -12 -71 -23 -143 -25 -160 -4 -27 -12 -82 -20 -125 -4 -23 -16
-102 -20 -130 -4 -28 -16 -107 -20 -130 -5 -26 -14 -93 -20 -140 -4 -25 -8
-56 -10 -70 -2 -14 -9 -63 -15 -110 -6 -47 -13 -103 -17 -125 -3 -22 -6 -51
-8 -65 -1 -14 -5 -52 -8 -85 -4 -33 -9 -89 -12 -125 -3 -36 -8 -85 -10 -110
-5 -57 -14 -199 -40 -620 -3 -47 -8 -112 -11 -145 -6 -71 7 -112 39 -124 24
-9 89 -15 277 -26 52 -3 120 -7 150 -10 30 -3 98 -7 150 -11 52 -3 113 -7 135
-9 22 -2 76 -6 120 -10 44 -3 96 -8 115 -10 19 -2 73 -7 120 -10 47 -4 101 -8
120 -10 19 -2 76 -6 125 -10 50 -3 101 -8 115 -10 14 -2 66 -7 115 -10 50 -4
106 -8 125 -10 19 -2 78 -6 130 -10 52 -4 104 -9 115 -12 11 -2 104 -6 207 -9
183 -4 217 1 191 27 -6 6 -237 90 -514 188 -930 329 -985 351 -1008 395 -7 13
-14 41 -14 62 -1 38 11 187 17 221 2 10 7 54 10 98 4 44 9 94 11 110 2 17 9
82 16 145 6 63 13 123 14 132 2 9 7 48 10 85 4 37 9 77 11 88 2 11 6 43 9 70
4 28 8 61 10 75 2 14 13 88 25 165 11 77 23 151 25 165 2 14 11 70 20 125 22
136 32 199 60 355 7 39 53 274 59 305 3 11 14 63 25 115 46 217 137 589 263
1070 22 85 42 164 45 175 6 30 9 38 16 60 9 29 19 74 24 117 8 62 -8 66 -262
73 -121 3 -301 8 -400 10 -99 3 -261 7 -360 10 -99 2 -270 7 -380 10 -110 3
-272 7 -360 10 -371 10 -755 17 -970 19 -249 1 -264 4 -299 59 -13 19 -48 130
-61 192 -3 11 -11 43 -20 70 -8 28 -42 147 -75 265 -206 728 -398 1291 -573
1680 -174 388 -290 606 -474 888 -378 580 -806 963 -1315 1176 -163 68 -384
135 -503 152 -22 3 -60 10 -85 14 -67 13 -313 9 -405 -5z m362 -780 c440 -33
863 -336 1207 -865 116 -177 148 -233 252 -440 139 -277 224 -476 481 -1130
25 -63 51 -128 58 -145 7 -16 27 -66 45 -110 17 -44 37 -93 44 -110 50 -111
184 -472 245 -657 58 -177 62 -211 29 -229 -31 -17 -70 -16 -798 8 -118 4
-561 7 -985 7 -779 -1 -1109 -4 -3062 -28 -88 -1 -175 2 -192 7 -56 14 -53 33
58 366 115 345 172 505 195 552 9 18 16 36 16 41 0 5 9 28 19 51 11 23 44 98
74 167 45 103 184 414 314 700 14 30 57 125 95 210 235 519 381 744 669 1031
364 362 684 543 1014 576 33 3 61 6 62 7 3 3 33 1 160 -9z"/>
<path d="M6509 5466 c-2 -2 -38 -7 -79 -10 -101 -10 -138 -14 -182 -20 -21 -3
-55 -8 -75 -11 -21 -3 -49 -7 -63 -10 -14 -3 -41 -7 -60 -10 -19 -2 -65 -10
-102 -16 -60 -11 -67 -14 -63 -33 2 -12 4 -40 4 -63 l1 -42 88 1 c148 1 198
-40 207 -172 4 -48 9 -579 19 -1941 2 -258 7 -382 15 -397 l11 -21 568 0 c312
1 650 0 752 -1 197 -2 229 3 255 43 19 30 64 193 81 295 2 15 9 47 14 72 34
158 48 261 36 266 -14 5 -99 23 -108 24 -5 0 -8 -5 -8 -10 0 -18 -106 -225
-145 -284 -41 -61 -100 -118 -155 -146 -89 -46 -165 -53 -552 -54 -265 -1
-278 0 -297 19 -11 11 -22 37 -25 57 -3 21 -8 543 -12 1160 -7 1346 -5 1263
-25 1283 -13 14 -91 29 -100 21z"/>
<path d="M4180 5449 c-145 -8 -216 -19 -340 -50 -472 -116 -785 -395 -930
-829 -16 -47 -31 -98 -34 -114 -3 -16 -10 -52 -15 -80 -18 -95 -22 -141 -26
-291 -13 -640 240 -1120 706 -1338 119 -55 228 -87 392 -113 18 -3 104 -7 192
-8 312 -6 582 52 812 175 239 126 410 300 527 536 38 78 92 218 101 262 2 9 8
34 13 56 6 22 13 58 17 80 3 23 7 50 9 60 10 52 19 201 18 302 -5 460 -147
813 -430 1063 -138 122 -393 240 -577 267 -16 2 -36 6 -43 8 -14 5 -127 15
-217 18 -33 1 -112 0 -175 -4z m125 -202 c170 -21 327 -96 457 -216 195 -179
322 -472 365 -841 10 -82 10 -386 1 -465 -59 -494 -307 -818 -679 -888 -100
-19 -293 -15 -377 7 -149 39 -283 118 -391 228 -231 237 -364 643 -362 1106 1
396 124 720 340 899 77 63 199 126 289 149 102 25 251 34 357 21z"/>
<path d="M11127 5444 c-1 -1 -57 -5 -125 -8 -130 -7 -206 -13 -262 -21 -19 -3
-63 -7 -98 -11 -35 -3 -71 -7 -80 -9 -9 -1 -42 -6 -72 -9 -83 -11 -111 -17
-106 -25 3 -4 6 -27 7 -52 1 -24 4 -49 6 -54 2 -6 38 -11 86 -11 95 -1 151
-24 182 -76 20 -35 22 -91 11 -568 -4 -162 -9 -401 -11 -530 -6 -340 -14 -724
-21 -1050 -8 -345 -9 -318 12 -341 15 -16 29 -18 143 -13 69 2 135 6 146 9 11
2 34 4 51 4 18 1 42 9 54 19 26 21 23 -24 34 532 4 157 9 364 11 460 3 96 7
285 10 420 3 135 8 349 10 475 11 507 15 593 24 618 14 35 43 42 181 41 126
-1 161 -6 265 -36 258 -74 399 -253 397 -503 -1 -199 -71 -372 -188 -465 -92
-73 -238 -129 -381 -146 -31 -3 -64 -8 -72 -9 -9 -2 -38 -4 -64 -4 l-48 -1 7
-57 c4 -32 7 -64 7 -70 0 -7 10 -13 21 -14 59 -1 249 -20 257 -24 3 -2 21 -7
40 -10 48 -9 115 -40 159 -75 71 -56 119 -149 161 -307 10 -40 28 -108 40
-150 11 -43 22 -85 24 -95 17 -78 91 -347 110 -402 75 -212 177 -279 408 -270
118 4 276 20 284 27 3 4 5 53 4 88 l-1 36 -54 6 c-125 13 -164 70 -250 367
-20 69 -55 188 -77 265 -67 231 -96 318 -123 366 -29 52 -103 132 -156 170
-47 35 -159 86 -203 94 -21 4 -37 10 -37 14 0 4 40 23 89 43 203 81 357 203
438 348 23 41 60 137 68 177 14 66 17 236 6 295 -28 143 -133 289 -265 367
-144 85 -383 148 -641 167 -64 5 -414 11 -418 8z"/>
<path d="M8630 5406 c-3 -2 -41 -7 -85 -11 -44 -3 -89 -8 -100 -10 -11 -2 -42
-7 -70 -10 -76 -9 -257 -34 -284 -41 -22 -5 -23 -8 -17 -60 3 -31 9 -60 12
-66 3 -5 25 -7 51 -3 58 8 144 -10 178 -37 59 -46 56 15 53 -1260 -2 -641 0
-1170 5 -1174 9 -9 55 -10 647 -18 245 -4 558 -9 695 -11 275 -6 285 -4 317
52 29 49 138 520 138 596 0 13 -30 22 -103 30 -13 1 -27 -19 -55 -78 -117
-251 -210 -344 -378 -377 -36 -7 -173 -11 -354 -11 -414 0 -429 1 -457 29 -27
27 -26 3 -23 409 1 171 2 385 3 478 0 112 4 167 11 168 6 1 20 2 31 1 43 -1
345 -13 425 -17 290 -14 362 -17 425 -18 l70 -2 7 50 c13 98 9 182 -8 196 -22
18 -64 17 -664 -7 -91 -4 -194 -8 -230 -8 l-65 -1 2 165 c1 91 3 313 4 494 1
292 3 330 18 345 15 15 47 17 302 15 483 -4 551 -13 633 -85 61 -53 108 -156
146 -317 l12 -54 55 5 c31 3 58 9 62 15 3 5 5 32 4 59 0 26 -4 145 -8 263 -8
251 -10 279 -21 290 -9 9 -1376 25 -1384 16z"/>
<path d="M2537 5364 c-1 -1 -22 -5 -47 -9 -65 -9 -135 -33 -153 -53 -8 -9 -63
-168 -122 -352 -181 -569 -306 -963 -322 -1015 -8 -27 -21 -70 -30 -95 -8 -25
-49 -153 -90 -285 -41 -132 -82 -262 -91 -290 -8 -27 -17 -54 -18 -60 -2 -5
-9 -30 -17 -54 l-13 -44 -17 34 c-8 19 -43 100 -77 179 -56 132 -75 174 -116
265 -7 17 -56 131 -109 254 -53 123 -104 243 -114 265 -10 23 -32 73 -49 111
-147 337 -176 405 -192 440 -9 22 -64 146 -120 275 -146 334 -149 343 -173
368 -19 21 -27 22 -91 16 -39 -3 -74 -7 -77 -10 -4 -2 -27 -6 -50 -9 -54 -7
-289 -51 -382 -72 l-68 -15 6 -46 c12 -86 8 -82 88 -76 95 8 149 -7 196 -55
46 -48 43 -41 282 -581 110 -250 209 -473 219 -495 10 -22 59 -134 109 -250
51 -115 100 -228 110 -250 10 -22 89 -202 176 -400 86 -198 168 -386 182 -418
19 -41 33 -59 50 -63 23 -6 157 2 200 13 24 5 35 29 118 248 30 83 60 159 65
170 4 11 47 124 95 250 145 386 306 809 315 830 5 11 98 250 205 530 108 281
202 524 210 542 8 17 15 35 15 40 0 5 9 28 20 51 11 23 22 59 23 80 l2 37 -73
1 c-40 0 -73 -1 -75 -2z"/>
<path d="M13469 5296 c-2 -2 -47 -6 -99 -10 -52 -3 -111 -8 -130 -10 -19 -3
-62 -7 -95 -11 -64 -7 -107 -12 -168 -21 -34 -5 -37 -8 -33 -32 2 -15 5 -44 5
-65 l1 -37 75 1 c90 1 159 -27 188 -78 24 -43 25 -109 2 -668 -4 -105 -14
-388 -20 -563 -2 -56 -6 -187 -10 -290 -3 -103 -8 -227 -10 -277 -3 -49 -7
-171 -11 -270 -3 -99 -6 -205 -8 -235 -2 -51 9 -99 23 -101 3 0 15 -2 26 -4
11 -2 99 -7 195 -10 226 -7 475 -18 715 -30 692 -37 656 -37 690 -5 33 31 55
93 109 308 47 186 51 204 62 278 l6 43 -53 15 c-64 19 -59 24 -129 -109 -147
-280 -237 -333 -560 -330 -129 2 -394 12 -505 20 -22 1 -50 3 -63 4 -13 0 -34
12 -47 26 l-25 24 5 193 c3 106 8 227 10 268 3 65 16 410 19 525 l2 40 69 -1
c64 -1 242 -11 325 -19 19 -2 71 -6 115 -10 44 -3 105 -8 135 -10 56 -4 171
-13 268 -20 48 -3 52 -2 53 18 0 12 2 31 4 42 10 48 16 147 10 165 -3 10 -16
23 -28 27 -12 4 -229 8 -482 8 l-460 0 1 35 c1 19 5 121 9 225 3 105 8 224 10
265 2 41 6 160 10 264 3 104 11 198 16 209 10 18 20 19 207 12 521 -18 598
-26 685 -73 90 -48 137 -143 191 -384 6 -26 9 -28 54 -24 26 2 53 4 60 5 19 2
18 604 -2 620 -8 7 -66 13 -142 16 -228 8 -603 23 -744 31 -111 6 -527 14
-531 10z"/>
<path d="M2247 2154 c-1 -1 -45 -5 -97 -8 -52 -4 -113 -9 -135 -11 -22 -3 -75
-7 -118 -10 -43 -3 -97 -7 -120 -10 -47 -4 -175 -15 -252 -20 -56 -4 -189 -15
-250 -20 -41 -4 -167 -14 -240 -20 -22 -2 -78 -6 -125 -10 -47 -3 -101 -8
-120 -10 -19 -2 -71 -7 -115 -11 -44 -3 -91 -8 -105 -9 -14 -2 -35 -3 -47 -4
-15 -1 -23 -7 -23 -19 0 -19 21 -24 165 -46 17 -3 113 -19 215 -36 102 -17
196 -33 210 -35 472 -77 463 -75 487 -111 16 -25 15 -126 -2 -469 -7 -134 -17
-425 -19 -513 -1 -80 1 -85 27 -108 22 -19 41 -24 85 -25 31 -1 71 -3 87 -4
17 -1 82 -5 145 -9 63 -4 140 -9 170 -11 101 -8 194 -14 290 -20 52 -3 124 -8
160 -10 89 -7 210 -15 300 -20 168 -10 248 -15 305 -20 33 -2 121 -7 195 -11
74 -3 158 -7 185 -9 28 -1 113 -6 190 -9 77 -4 172 -9 210 -12 39 -2 129 -6
200 -9 72 -3 168 -7 215 -10 152 -8 415 -17 875 -30 77 -2 244 -8 370 -12 284
-10 2940 -9 3610 1 979 14 1242 21 1635 41 47 2 150 7 230 10 80 3 181 8 225
10 92 6 218 12 360 20 55 3 132 7 170 10 39 2 115 7 170 10 55 3 132 8 170 10
39 2 115 7 169 10 54 4 138 8 185 10 82 4 194 10 346 20 39 3 120 7 180 10 61
3 139 7 175 10 36 2 124 7 195 10 217 11 259 15 283 31 47 31 47 37 27 495 -3
57 -7 160 -10 229 -3 69 -8 174 -10 233 -5 115 6 160 42 171 103 31 261 64
384 81 25 3 59 8 75 10 72 12 92 15 139 20 28 4 75 10 105 15 30 6 75 12 100
15 99 12 226 34 247 42 38 14 11 30 -62 37 -38 4 -86 9 -105 11 -19 2 -71 7
-115 10 -44 3 -91 8 -105 10 -14 2 -63 6 -110 10 -47 4 -98 8 -115 10 -16 2
-73 6 -125 10 -52 3 -111 7 -130 10 -19 2 -73 7 -120 10 -47 4 -105 8 -130 10
-25 2 -83 6 -130 10 -47 3 -96 8 -110 10 -14 2 -70 7 -125 10 -55 4 -112 8
-127 10 -14 2 -77 6 -140 10 -150 9 -150 10 -154 -152 -3 -153 -15 -471 -19
-548 -7 -105 -55 -141 -200 -149 -49 -3 -142 -8 -205 -11 -63 -3 -140 -8 -170
-10 -30 -2 -109 -7 -175 -10 -66 -3 -156 -8 -200 -10 -44 -3 -127 -7 -185 -10
-58 -3 -148 -7 -200 -10 -189 -10 -344 -17 -645 -30 -340 -15 -1139 -37 -1815
-50 -364 -7 -466 -8 -486 -1 -39 12 -46 41 -59 236 -9 136 -24 175 -72 191
-52 17 -1570 17 -1611 0 -48 -20 -50 -31 -66 -281 -10 -158 3 -153 -374 -145
-367 7 -589 13 -842 20 -107 3 -269 8 -360 10 -161 4 -378 11 -670 20 -139 5
-244 9 -485 20 -60 3 -166 7 -235 10 -69 3 -161 8 -205 10 -44 3 -125 7 -180
10 -55 3 -140 7 -190 10 -49 3 -130 7 -180 10 -390 19 -451 23 -504 30 -49 7
-87 34 -102 73 -11 29 -19 186 -23 490 -5 289 -3 285 -99 280 -32 -1 -59 -3
-60 -4z"/>
</g>
</svg>
