<?xml version="1.0" standalone="no"?>
<!DOCTYPE svg PUBLIC "-//W3C//DTD SVG 20010904//EN"
 "http://www.w3.org/TR/2001/REC-SVG-20010904/DTD/svg10.dtd">
<svg version="1.0" xmlns="http://www.w3.org/2000/svg"
 width="500.000000pt" height="500.000000pt" viewBox="0 0 500.000000 500.000000"
 preserveAspectRatio="xMidYMid meet">
<metadata>
Created by potrace 1.14, written by Peter Selinger 2001-2017
</metadata>
<g transform="translate(0.000000,500.000000) scale(0.100000,-0.100000)"
fill="#000000" stroke="none">
<path d="M1690 4476 c-133 -39 -113 -22 -600 -526 -397 -411 -496 -514 -760
-786 -52 -54 -110 -118 -128 -143 -37 -52 -90 -182 -99 -244 -3 -23 -6 -431
-6 -907 l0 -865 27 -80 c72 -213 216 -349 425 -403 l85 -22 1846 0 1846 0 54
27 c60 31 86 69 93 138 8 73 -35 152 -98 181 -11 5 -126 11 -255 14 l-235 5
-1 713 c0 550 -3 715 -12 724 -10 10 -171 13 -705 13 -611 1 -693 -1 -704 -15
-9 -11 -12 -183 -13 -727 l0 -713 -242 3 c-225 2 -246 4 -283 24 -51 27 -88
64 -112 111 -17 35 -18 81 -18 898 l0 860 26 40 c14 21 59 73 100 115 361 373
512 529 540 558 l32 34 181 -185 c100 -102 264 -273 366 -378 102 -106 196
-204 210 -216 115 -109 295 -41 305 116 3 37 -17 103 -37 124 -7 7 -105 109
-218 226 -113 117 -231 240 -264 274 -32 33 -110 113 -172 177 -63 64 -114
119 -114 122 0 6 47 55 257 270 52 53 100 97 106 98 7 0 21 2 32 5 42 8 77 -9
138 -70 54 -54 441 -453 617 -636 34 -36 162 -168 283 -294 477 -493 451 -471
543 -464 125 11 201 146 145 257 -11 21 -53 72 -93 113 -40 41 -170 175 -288
297 -118 122 -255 264 -305 315 -49 51 -185 192 -301 312 -346 358 -417 428
-459 455 -147 94 -340 101 -499 16 -55 -29 -191 -159 -373 -354 -27 -29 -52
-53 -57 -53 -7 0 -32 25 -258 258 -119 123 -188 169 -303 198 -62 16 -173 12
-245 -10z m341 -494 c80 -81 160 -163 177 -184 l32 -36 -46 -49 c-25 -26 -141
-146 -258 -266 -356 -368 -377 -390 -410 -442 -40 -63 -61 -113 -80 -190 -13
-51 -16 -187 -16 -915 0 -885 -1 -854 37 -1018 l5 -23 -423 3 -424 3 -47 28
c-56 34 -105 103 -113 161 -3 22 -5 417 -3 876 3 816 3 836 23 865 11 16 27
37 35 46 8 8 114 118 235 243 230 237 257 266 627 647 124 129 257 267 295
306 83 88 114 106 168 98 36 -5 56 -22 186 -153z m1807 -2416 l2 -707 -672 3
-673 3 0 702 0 702 55 3 c30 2 332 3 670 2 l615 -1 3 -707z"/>
</g>
</svg>
